<?xml version="1.0" encoding="UTF-8" standalone="no"?>
<svg width="1015px" height="70px" viewBox="0 0 1015 70" version="1.1" xmlns="http://www.w3.org/2000/svg" xmlns:xlink="http://www.w3.org/1999/xlink">
    <!-- Generator: Sketch 3.8.3 (29802) - http://www.bohemiancoding.com/sketch -->
    <title>footer</title>
    <desc>Created with Sketch.</desc>
    <defs></defs>
    <g id="Page-1" stroke="none" stroke-width="1" fill="none" fill-rule="evenodd">
        <g id="Desktop" transform="translate(0.000000, -954.000000)" fill="#BB1B00">
            <g id="footer" transform="translate(0.000000, 954.000000)">
                <path d="M262.245766,12.3082578 C265.692792,12.3082578 268.646186,9.35381384 268.646186,5.90783773 C268.646186,2.46186163 265.20021,0 262.245766,0 C259.292372,0 255.846396,2.95339372 255.846396,6.40042011 C255.846396,9.84639622 258.79979,12.3082578 262.245766,12.3082578 L262.245766,12.3082578 Z M273.077327,17.2309308 L250.922673,17.2309308 C247.969279,17.2309308 246,19.2002101 246,22.1546541 L246,41.8474465 C246,43.3241434 246.984114,44.3093081 248.460811,44.3093081 C249.938558,44.3093081 250.922673,43.3241434 250.922673,41.8474465 L250.922673,31.0158855 C250.922673,30.031771 251.415255,29.5391887 252.39937,29.5391887 C253.384535,29.5391887 253.877117,30.031771 253.877117,31.0158855 L253.877117,75.3251936 C253.877117,77.2944729 255.353814,79.2637521 257.815675,79.2637521 C260.276487,79.2637521 260.769069,77.2944729 260.769069,75.3251936 L260.769069,49.2319811 L263.230931,49.2319811 L263.230931,75.3251936 C263.230931,77.2944729 264.707628,79.2637521 267.169489,79.2637521 C269.631351,79.2637521 270.615465,77.2944729 270.615465,75.3251936 L270.615465,31.0158855 C270.615465,30.031771 271.108048,29.5391887 272.092162,29.5391887 C273.077327,29.5391887 273.569909,30.031771 273.569909,31.0158855 L273.569909,42.3389786 C273.077327,43.3241434 274.061442,44.3093081 275.539189,44.3093081 C277.015886,44.3093081 278,43.3241434 278,41.8474465 L278,22.1546541 C278,19.2002101 276.030721,17.2309308 273.077327,17.2309308 L273.077327,17.2309308 Z" id="Page-1-Copy" opacity="0.2"></path>
                <path d="M754.245766,12.3082578 C757.692792,12.3082578 760.646186,9.35381384 760.646186,5.90783773 C760.646186,2.46186163 757.20021,0 754.245766,0 C751.292372,0 747.846396,2.95339372 747.846396,6.40042011 C747.846396,9.84639622 750.79979,12.3082578 754.245766,12.3082578 L754.245766,12.3082578 Z M765.077327,17.2309308 L742.922673,17.2309308 C739.969279,17.2309308 738,19.2002101 738,22.1546541 L738,41.8474465 C738,43.3241434 738.984114,44.3093081 740.460811,44.3093081 C741.938558,44.3093081 742.922673,43.3241434 742.922673,41.8474465 L742.922673,31.0158855 C742.922673,30.031771 743.415255,29.5391887 744.39937,29.5391887 C745.384535,29.5391887 745.877117,30.031771 745.877117,31.0158855 L745.877117,75.3251936 C745.877117,77.2944729 747.353814,79.2637521 749.815675,79.2637521 C752.276487,79.2637521 752.769069,77.2944729 752.769069,75.3251936 L752.769069,49.2319811 L755.230931,49.2319811 L755.230931,75.3251936 C755.230931,77.2944729 756.707628,79.2637521 759.169489,79.2637521 C761.631351,79.2637521 762.615465,77.2944729 762.615465,75.3251936 L762.615465,31.0158855 C762.615465,30.031771 763.108048,29.5391887 764.092162,29.5391887 C765.077327,29.5391887 765.569909,30.031771 765.569909,31.0158855 L765.569909,42.3389786 C765.077327,43.3241434 766.061442,44.3093081 767.539189,44.3093081 C769.015886,44.3093081 770,43.3241434 770,41.8474465 L770,22.1546541 C770,19.2002101 768.030721,17.2309308 765.077327,17.2309308 L765.077327,17.2309308 Z" id="Page-1-Copy-8" opacity="0.2"></path>
                <path d="M16.245766,12.3082578 C19.6927924,12.3082578 22.6461862,9.35381384 22.6461862,5.90783773 C22.6461862,2.46186163 19.2002101,0 16.245766,0 C13.2923723,0 9.84639622,2.95339372 9.84639622,6.40042011 C9.84639622,9.84639622 12.7997899,12.3082578 16.245766,12.3082578 L16.245766,12.3082578 Z M27.077327,17.2309308 L4.92267297,17.2309308 C1.96927924,17.2309308 0,19.2002101 0,22.1546541 L0,41.8474465 C0,43.3241434 0.984114481,44.3093081 2.46081134,44.3093081 C3.93855849,44.3093081 4.92267297,43.3241434 4.92267297,41.8474465 L4.92267297,31.0158855 C4.92267297,30.031771 5.41525535,29.5391887 6.39936983,29.5391887 C7.38453459,29.5391887 7.87711698,30.031771 7.87711698,31.0158855 L7.87711698,75.3251936 C7.87711698,77.2944729 9.35381384,79.2637521 11.8156755,79.2637521 C14.2764868,79.2637521 14.7690692,77.2944729 14.7690692,75.3251936 L14.7690692,49.2319811 L17.2309308,49.2319811 L17.2309308,75.3251936 C17.2309308,77.2944729 18.7076277,79.2637521 21.1694893,79.2637521 C23.6313509,79.2637521 24.6154654,77.2944729 24.6154654,75.3251936 L24.6154654,31.0158855 C24.6154654,30.031771 25.1080478,29.5391887 26.0921623,29.5391887 C27.077327,29.5391887 27.5699094,30.031771 27.5699094,31.0158855 L27.5699094,42.3389786 C27.077327,43.3241434 28.0614415,44.3093081 29.5391887,44.3093081 C31.0158855,44.3093081 32,43.3241434 32,41.8474465 L32,22.1546541 C32,19.2002101 30.0307208,17.2309308 27.077327,17.2309308 L27.077327,17.2309308 Z" id="Page-1-Copy-2" opacity="0.2"></path>
                <path d="M508.245766,12.3082578 C511.692792,12.3082578 514.646186,9.35381384 514.646186,5.90783773 C514.646186,2.46186163 511.20021,0 508.245766,0 C505.292372,0 501.846396,2.95339372 501.846396,6.40042011 C501.846396,9.84639622 504.79979,12.3082578 508.245766,12.3082578 L508.245766,12.3082578 Z M519.077327,17.2309308 L496.922673,17.2309308 C493.969279,17.2309308 492,19.2002101 492,22.1546541 L492,41.8474465 C492,43.3241434 492.984114,44.3093081 494.460811,44.3093081 C495.938558,44.3093081 496.922673,43.3241434 496.922673,41.8474465 L496.922673,31.0158855 C496.922673,30.031771 497.415255,29.5391887 498.39937,29.5391887 C499.384535,29.5391887 499.877117,30.031771 499.877117,31.0158855 L499.877117,75.3251936 C499.877117,77.2944729 501.353814,79.2637521 503.815675,79.2637521 C506.276487,79.2637521 506.769069,77.2944729 506.769069,75.3251936 L506.769069,49.2319811 L509.230931,49.2319811 L509.230931,75.3251936 C509.230931,77.2944729 510.707628,79.2637521 513.169489,79.2637521 C515.631351,79.2637521 516.615465,77.2944729 516.615465,75.3251936 L516.615465,31.0158855 C516.615465,30.031771 517.108048,29.5391887 518.092162,29.5391887 C519.077327,29.5391887 519.569909,30.031771 519.569909,31.0158855 L519.569909,42.3389786 C519.077327,43.3241434 520.061442,44.3093081 521.539189,44.3093081 C523.015886,44.3093081 524,43.3241434 524,41.8474465 L524,22.1546541 C524,19.2002101 522.030721,17.2309308 519.077327,17.2309308 L519.077327,17.2309308 Z" id="Page-1-Copy-9" opacity="0.2"></path>
                <path d="M303.245766,12.3082578 C306.692792,12.3082578 309.646186,9.35381384 309.646186,5.90783773 C309.646186,2.46186163 306.20021,0 303.245766,0 C300.292372,0 296.846396,2.95339372 296.846396,6.40042011 C296.846396,9.84639622 299.79979,12.3082578 303.245766,12.3082578 L303.245766,12.3082578 Z M314.077327,17.2309308 L291.922673,17.2309308 C288.969279,17.2309308 287,19.2002101 287,22.1546541 L287,41.8474465 C287,43.3241434 287.984114,44.3093081 289.460811,44.3093081 C290.938558,44.3093081 291.922673,43.3241434 291.922673,41.8474465 L291.922673,31.0158855 C291.922673,30.031771 292.415255,29.5391887 293.39937,29.5391887 C294.384535,29.5391887 294.877117,30.031771 294.877117,31.0158855 L294.877117,75.3251936 C294.877117,77.2944729 296.353814,79.2637521 298.815675,79.2637521 C301.276487,79.2637521 301.769069,77.2944729 301.769069,75.3251936 L301.769069,49.2319811 L304.230931,49.2319811 L304.230931,75.3251936 C304.230931,77.2944729 305.707628,79.2637521 308.169489,79.2637521 C310.631351,79.2637521 311.615465,77.2944729 311.615465,75.3251936 L311.615465,31.0158855 C311.615465,30.031771 312.108048,29.5391887 313.092162,29.5391887 C314.077327,29.5391887 314.569909,30.031771 314.569909,31.0158855 L314.569909,42.3389786 C314.077327,43.3241434 315.061442,44.3093081 316.539189,44.3093081 C318.015886,44.3093081 319,43.3241434 319,41.8474465 L319,22.1546541 C319,19.2002101 317.030721,17.2309308 314.077327,17.2309308 L314.077327,17.2309308 Z" id="Page-1-Copy" opacity="0.2"></path>
                <path d="M795.245766,12.3082578 C798.692792,12.3082578 801.646186,9.35381384 801.646186,5.90783773 C801.646186,2.46186163 798.20021,0 795.245766,0 C792.292372,0 788.846396,2.95339372 788.846396,6.40042011 C788.846396,9.84639622 791.79979,12.3082578 795.245766,12.3082578 L795.245766,12.3082578 Z M806.077327,17.2309308 L783.922673,17.2309308 C780.969279,17.2309308 779,19.2002101 779,22.1546541 L779,41.8474465 C779,43.3241434 779.984114,44.3093081 781.460811,44.3093081 C782.938558,44.3093081 783.922673,43.3241434 783.922673,41.8474465 L783.922673,31.0158855 C783.922673,30.031771 784.415255,29.5391887 785.39937,29.5391887 C786.384535,29.5391887 786.877117,30.031771 786.877117,31.0158855 L786.877117,75.3251936 C786.877117,77.2944729 788.353814,79.2637521 790.815675,79.2637521 C793.276487,79.2637521 793.769069,77.2944729 793.769069,75.3251936 L793.769069,49.2319811 L796.230931,49.2319811 L796.230931,75.3251936 C796.230931,77.2944729 797.707628,79.2637521 800.169489,79.2637521 C802.631351,79.2637521 803.615465,77.2944729 803.615465,75.3251936 L803.615465,31.0158855 C803.615465,30.031771 804.108048,29.5391887 805.092162,29.5391887 C806.077327,29.5391887 806.569909,30.031771 806.569909,31.0158855 L806.569909,42.3389786 C806.077327,43.3241434 807.061442,44.3093081 808.539189,44.3093081 C810.015886,44.3093081 811,43.3241434 811,41.8474465 L811,22.1546541 C811,19.2002101 809.030721,17.2309308 806.077327,17.2309308 L806.077327,17.2309308 Z" id="Page-1-Copy-10" opacity="0.2"></path>
                <path d="M57.245766,12.3082578 C60.6927924,12.3082578 63.6461862,9.35381384 63.6461862,5.90783773 C63.6461862,2.46186163 60.2002101,0 57.245766,0 C54.2923723,0 50.8463962,2.95339372 50.8463962,6.40042011 C50.8463962,9.84639622 53.7997899,12.3082578 57.245766,12.3082578 L57.245766,12.3082578 Z M68.077327,17.2309308 L45.922673,17.2309308 C42.9692792,17.2309308 41,19.2002101 41,22.1546541 L41,41.8474465 C41,43.3241434 41.9841145,44.3093081 43.4608113,44.3093081 C44.9385585,44.3093081 45.922673,43.3241434 45.922673,41.8474465 L45.922673,31.0158855 C45.922673,30.031771 46.4152553,29.5391887 47.3993698,29.5391887 C48.3845346,29.5391887 48.877117,30.031771 48.877117,31.0158855 L48.877117,75.3251936 C48.877117,77.2944729 50.3538138,79.2637521 52.8156755,79.2637521 C55.2764868,79.2637521 55.7690692,77.2944729 55.7690692,75.3251936 L55.7690692,49.2319811 L58.2309308,49.2319811 L58.2309308,75.3251936 C58.2309308,77.2944729 59.7076277,79.2637521 62.1694893,79.2637521 C64.6313509,79.2637521 65.6154654,77.2944729 65.6154654,75.3251936 L65.6154654,31.0158855 C65.6154654,30.031771 66.1080478,29.5391887 67.0921623,29.5391887 C68.077327,29.5391887 68.5699094,30.031771 68.5699094,31.0158855 L68.5699094,42.3389786 C68.077327,43.3241434 69.0614415,44.3093081 70.5391887,44.3093081 C72.0158855,44.3093081 73,43.3241434 73,41.8474465 L73,22.1546541 C73,19.2002101 71.0307208,17.2309308 68.077327,17.2309308 L68.077327,17.2309308 Z" id="Page-1-Copy-3" opacity="0.2"></path>
                <path d="M549.245766,12.3082578 C552.692792,12.3082578 555.646186,9.35381384 555.646186,5.90783773 C555.646186,2.46186163 552.20021,0 549.245766,0 C546.292372,0 542.846396,2.95339372 542.846396,6.40042011 C542.846396,9.84639622 545.79979,12.3082578 549.245766,12.3082578 L549.245766,12.3082578 Z M560.077327,17.2309308 L537.922673,17.2309308 C534.969279,17.2309308 533,19.2002101 533,22.1546541 L533,41.8474465 C533,43.3241434 533.984114,44.3093081 535.460811,44.3093081 C536.938558,44.3093081 537.922673,43.3241434 537.922673,41.8474465 L537.922673,31.0158855 C537.922673,30.031771 538.415255,29.5391887 539.39937,29.5391887 C540.384535,29.5391887 540.877117,30.031771 540.877117,31.0158855 L540.877117,75.3251936 C540.877117,77.2944729 542.353814,79.2637521 544.815675,79.2637521 C547.276487,79.2637521 547.769069,77.2944729 547.769069,75.3251936 L547.769069,49.2319811 L550.230931,49.2319811 L550.230931,75.3251936 C550.230931,77.2944729 551.707628,79.2637521 554.169489,79.2637521 C556.631351,79.2637521 557.615465,77.2944729 557.615465,75.3251936 L557.615465,31.0158855 C557.615465,30.031771 558.108048,29.5391887 559.092162,29.5391887 C560.077327,29.5391887 560.569909,30.031771 560.569909,31.0158855 L560.569909,42.3389786 C560.077327,43.3241434 561.061442,44.3093081 562.539189,44.3093081 C564.015886,44.3093081 565,43.3241434 565,41.8474465 L565,22.1546541 C565,19.2002101 563.030721,17.2309308 560.077327,17.2309308 L560.077327,17.2309308 Z" id="Page-1-Copy-11" opacity="0.2"></path>
                <path d="M344.245766,12.3082578 C347.692792,12.3082578 350.646186,9.35381384 350.646186,5.90783773 C350.646186,2.46186163 347.20021,0 344.245766,0 C341.292372,0 337.846396,2.95339372 337.846396,6.40042011 C337.846396,9.84639622 340.79979,12.3082578 344.245766,12.3082578 L344.245766,12.3082578 Z M355.077327,17.2309308 L332.922673,17.2309308 C329.969279,17.2309308 328,19.2002101 328,22.1546541 L328,41.8474465 C328,43.3241434 328.984114,44.3093081 330.460811,44.3093081 C331.938558,44.3093081 332.922673,43.3241434 332.922673,41.8474465 L332.922673,31.0158855 C332.922673,30.031771 333.415255,29.5391887 334.39937,29.5391887 C335.384535,29.5391887 335.877117,30.031771 335.877117,31.0158855 L335.877117,75.3251936 C335.877117,77.2944729 337.353814,79.2637521 339.815675,79.2637521 C342.276487,79.2637521 342.769069,77.2944729 342.769069,75.3251936 L342.769069,49.2319811 L345.230931,49.2319811 L345.230931,75.3251936 C345.230931,77.2944729 346.707628,79.2637521 349.169489,79.2637521 C351.631351,79.2637521 352.615465,77.2944729 352.615465,75.3251936 L352.615465,31.0158855 C352.615465,30.031771 353.108048,29.5391887 354.092162,29.5391887 C355.077327,29.5391887 355.569909,30.031771 355.569909,31.0158855 L355.569909,42.3389786 C355.077327,43.3241434 356.061442,44.3093081 357.539189,44.3093081 C359.015886,44.3093081 360,43.3241434 360,41.8474465 L360,22.1546541 C360,19.2002101 358.030721,17.2309308 355.077327,17.2309308 L355.077327,17.2309308 Z" id="Page-1-Copy" opacity="0.2"></path>
                <path d="M836.245766,12.3082578 C839.692792,12.3082578 842.646186,9.35381384 842.646186,5.90783773 C842.646186,2.46186163 839.20021,0 836.245766,0 C833.292372,0 829.846396,2.95339372 829.846396,6.40042011 C829.846396,9.84639622 832.79979,12.3082578 836.245766,12.3082578 L836.245766,12.3082578 Z M847.077327,17.2309308 L824.922673,17.2309308 C821.969279,17.2309308 820,19.2002101 820,22.1546541 L820,41.8474465 C820,43.3241434 820.984114,44.3093081 822.460811,44.3093081 C823.938558,44.3093081 824.922673,43.3241434 824.922673,41.8474465 L824.922673,31.0158855 C824.922673,30.031771 825.415255,29.5391887 826.39937,29.5391887 C827.384535,29.5391887 827.877117,30.031771 827.877117,31.0158855 L827.877117,75.3251936 C827.877117,77.2944729 829.353814,79.2637521 831.815675,79.2637521 C834.276487,79.2637521 834.769069,77.2944729 834.769069,75.3251936 L834.769069,49.2319811 L837.230931,49.2319811 L837.230931,75.3251936 C837.230931,77.2944729 838.707628,79.2637521 841.169489,79.2637521 C843.631351,79.2637521 844.615465,77.2944729 844.615465,75.3251936 L844.615465,31.0158855 C844.615465,30.031771 845.108048,29.5391887 846.092162,29.5391887 C847.077327,29.5391887 847.569909,30.031771 847.569909,31.0158855 L847.569909,42.3389786 C847.077327,43.3241434 848.061442,44.3093081 849.539189,44.3093081 C851.015886,44.3093081 852,43.3241434 852,41.8474465 L852,22.1546541 C852,19.2002101 850.030721,17.2309308 847.077327,17.2309308 L847.077327,17.2309308 Z" id="Page-1-Copy-12" opacity="0.2"></path>
                <path d="M98.245766,12.3082578 C101.692792,12.3082578 104.646186,9.35381384 104.646186,5.90783773 C104.646186,2.46186163 101.20021,0 98.245766,0 C95.2923723,0 91.8463962,2.95339372 91.8463962,6.40042011 C91.8463962,9.84639622 94.7997899,12.3082578 98.245766,12.3082578 L98.245766,12.3082578 Z M109.077327,17.2309308 L86.922673,17.2309308 C83.9692792,17.2309308 82,19.2002101 82,22.1546541 L82,41.8474465 C82,43.3241434 82.9841145,44.3093081 84.4608113,44.3093081 C85.9385585,44.3093081 86.922673,43.3241434 86.922673,41.8474465 L86.922673,31.0158855 C86.922673,30.031771 87.4152553,29.5391887 88.3993698,29.5391887 C89.3845346,29.5391887 89.877117,30.031771 89.877117,31.0158855 L89.877117,75.3251936 C89.877117,77.2944729 91.3538138,79.2637521 93.8156755,79.2637521 C96.2764868,79.2637521 96.7690692,77.2944729 96.7690692,75.3251936 L96.7690692,49.2319811 L99.2309308,49.2319811 L99.2309308,75.3251936 C99.2309308,77.2944729 100.707628,79.2637521 103.169489,79.2637521 C105.631351,79.2637521 106.615465,77.2944729 106.615465,75.3251936 L106.615465,31.0158855 C106.615465,30.031771 107.108048,29.5391887 108.092162,29.5391887 C109.077327,29.5391887 109.569909,30.031771 109.569909,31.0158855 L109.569909,42.3389786 C109.077327,43.3241434 110.061442,44.3093081 111.539189,44.3093081 C113.015886,44.3093081 114,43.3241434 114,41.8474465 L114,22.1546541 C114,19.2002101 112.030721,17.2309308 109.077327,17.2309308 L109.077327,17.2309308 Z" id="Page-1-Copy-4" opacity="0.2"></path>
                <path d="M590.245766,12.3082578 C593.692792,12.3082578 596.646186,9.35381384 596.646186,5.90783773 C596.646186,2.46186163 593.20021,0 590.245766,0 C587.292372,0 583.846396,2.95339372 583.846396,6.40042011 C583.846396,9.84639622 586.79979,12.3082578 590.245766,12.3082578 L590.245766,12.3082578 Z M601.077327,17.2309308 L578.922673,17.2309308 C575.969279,17.2309308 574,19.2002101 574,22.1546541 L574,41.8474465 C574,43.3241434 574.984114,44.3093081 576.460811,44.3093081 C577.938558,44.3093081 578.922673,43.3241434 578.922673,41.8474465 L578.922673,31.0158855 C578.922673,30.031771 579.415255,29.5391887 580.39937,29.5391887 C581.384535,29.5391887 581.877117,30.031771 581.877117,31.0158855 L581.877117,75.3251936 C581.877117,77.2944729 583.353814,79.2637521 585.815675,79.2637521 C588.276487,79.2637521 588.769069,77.2944729 588.769069,75.3251936 L588.769069,49.2319811 L591.230931,49.2319811 L591.230931,75.3251936 C591.230931,77.2944729 592.707628,79.2637521 595.169489,79.2637521 C597.631351,79.2637521 598.615465,77.2944729 598.615465,75.3251936 L598.615465,31.0158855 C598.615465,30.031771 599.108048,29.5391887 600.092162,29.5391887 C601.077327,29.5391887 601.569909,30.031771 601.569909,31.0158855 L601.569909,42.3389786 C601.077327,43.3241434 602.061442,44.3093081 603.539189,44.3093081 C605.015886,44.3093081 606,43.3241434 606,41.8474465 L606,22.1546541 C606,19.2002101 604.030721,17.2309308 601.077327,17.2309308 L601.077327,17.2309308 Z" id="Page-1-Copy-13" opacity="0.2"></path>
                <path d="M385.245766,12.3082578 C388.692792,12.3082578 391.646186,9.35381384 391.646186,5.90783773 C391.646186,2.46186163 388.20021,0 385.245766,0 C382.292372,0 378.846396,2.95339372 378.846396,6.40042011 C378.846396,9.84639622 381.79979,12.3082578 385.245766,12.3082578 L385.245766,12.3082578 Z M396.077327,17.2309308 L373.922673,17.2309308 C370.969279,17.2309308 369,19.2002101 369,22.1546541 L369,41.8474465 C369,43.3241434 369.984114,44.3093081 371.460811,44.3093081 C372.938558,44.3093081 373.922673,43.3241434 373.922673,41.8474465 L373.922673,31.0158855 C373.922673,30.031771 374.415255,29.5391887 375.39937,29.5391887 C376.384535,29.5391887 376.877117,30.031771 376.877117,31.0158855 L376.877117,75.3251936 C376.877117,77.2944729 378.353814,79.2637521 380.815675,79.2637521 C383.276487,79.2637521 383.769069,77.2944729 383.769069,75.3251936 L383.769069,49.2319811 L386.230931,49.2319811 L386.230931,75.3251936 C386.230931,77.2944729 387.707628,79.2637521 390.169489,79.2637521 C392.631351,79.2637521 393.615465,77.2944729 393.615465,75.3251936 L393.615465,31.0158855 C393.615465,30.031771 394.108048,29.5391887 395.092162,29.5391887 C396.077327,29.5391887 396.569909,30.031771 396.569909,31.0158855 L396.569909,42.3389786 C396.077327,43.3241434 397.061442,44.3093081 398.539189,44.3093081 C400.015886,44.3093081 401,43.3241434 401,41.8474465 L401,22.1546541 C401,19.2002101 399.030721,17.2309308 396.077327,17.2309308 L396.077327,17.2309308 Z" id="Page-1-Copy" opacity="0.2"></path>
                <path d="M877.245766,12.3082578 C880.692792,12.3082578 883.646186,9.35381384 883.646186,5.90783773 C883.646186,2.46186163 880.20021,0 877.245766,0 C874.292372,0 870.846396,2.95339372 870.846396,6.40042011 C870.846396,9.84639622 873.79979,12.3082578 877.245766,12.3082578 L877.245766,12.3082578 Z M888.077327,17.2309308 L865.922673,17.2309308 C862.969279,17.2309308 861,19.2002101 861,22.1546541 L861,41.8474465 C861,43.3241434 861.984114,44.3093081 863.460811,44.3093081 C864.938558,44.3093081 865.922673,43.3241434 865.922673,41.8474465 L865.922673,31.0158855 C865.922673,30.031771 866.415255,29.5391887 867.39937,29.5391887 C868.384535,29.5391887 868.877117,30.031771 868.877117,31.0158855 L868.877117,75.3251936 C868.877117,77.2944729 870.353814,79.2637521 872.815675,79.2637521 C875.276487,79.2637521 875.769069,77.2944729 875.769069,75.3251936 L875.769069,49.2319811 L878.230931,49.2319811 L878.230931,75.3251936 C878.230931,77.2944729 879.707628,79.2637521 882.169489,79.2637521 C884.631351,79.2637521 885.615465,77.2944729 885.615465,75.3251936 L885.615465,31.0158855 C885.615465,30.031771 886.108048,29.5391887 887.092162,29.5391887 C888.077327,29.5391887 888.569909,30.031771 888.569909,31.0158855 L888.569909,42.3389786 C888.077327,43.3241434 889.061442,44.3093081 890.539189,44.3093081 C892.015886,44.3093081 893,43.3241434 893,41.8474465 L893,22.1546541 C893,19.2002101 891.030721,17.2309308 888.077327,17.2309308 L888.077327,17.2309308 Z" id="Page-1-Copy-14" opacity="0.2"></path>
                <path d="M139.245766,12.3082578 C142.692792,12.3082578 145.646186,9.35381384 145.646186,5.90783773 C145.646186,2.46186163 142.20021,0 139.245766,0 C136.292372,0 132.846396,2.95339372 132.846396,6.40042011 C132.846396,9.84639622 135.79979,12.3082578 139.245766,12.3082578 L139.245766,12.3082578 Z M150.077327,17.2309308 L127.922673,17.2309308 C124.969279,17.2309308 123,19.2002101 123,22.1546541 L123,41.8474465 C123,43.3241434 123.984114,44.3093081 125.460811,44.3093081 C126.938558,44.3093081 127.922673,43.3241434 127.922673,41.8474465 L127.922673,31.0158855 C127.922673,30.031771 128.415255,29.5391887 129.39937,29.5391887 C130.384535,29.5391887 130.877117,30.031771 130.877117,31.0158855 L130.877117,75.3251936 C130.877117,77.2944729 132.353814,79.2637521 134.815675,79.2637521 C137.276487,79.2637521 137.769069,77.2944729 137.769069,75.3251936 L137.769069,49.2319811 L140.230931,49.2319811 L140.230931,75.3251936 C140.230931,77.2944729 141.707628,79.2637521 144.169489,79.2637521 C146.631351,79.2637521 147.615465,77.2944729 147.615465,75.3251936 L147.615465,31.0158855 C147.615465,30.031771 148.108048,29.5391887 149.092162,29.5391887 C150.077327,29.5391887 150.569909,30.031771 150.569909,31.0158855 L150.569909,42.3389786 C150.077327,43.3241434 151.061442,44.3093081 152.539189,44.3093081 C154.015886,44.3093081 155,43.3241434 155,41.8474465 L155,22.1546541 C155,19.2002101 153.030721,17.2309308 150.077327,17.2309308 L150.077327,17.2309308 Z" id="Page-1-Copy-5" opacity="0.2"></path>
                <path d="M631.245766,12.3082578 C634.692792,12.3082578 637.646186,9.35381384 637.646186,5.90783773 C637.646186,2.46186163 634.20021,0 631.245766,0 C628.292372,0 624.846396,2.95339372 624.846396,6.40042011 C624.846396,9.84639622 627.79979,12.3082578 631.245766,12.3082578 L631.245766,12.3082578 Z M642.077327,17.2309308 L619.922673,17.2309308 C616.969279,17.2309308 615,19.2002101 615,22.1546541 L615,41.8474465 C615,43.3241434 615.984114,44.3093081 617.460811,44.3093081 C618.938558,44.3093081 619.922673,43.3241434 619.922673,41.8474465 L619.922673,31.0158855 C619.922673,30.031771 620.415255,29.5391887 621.39937,29.5391887 C622.384535,29.5391887 622.877117,30.031771 622.877117,31.0158855 L622.877117,75.3251936 C622.877117,77.2944729 624.353814,79.2637521 626.815675,79.2637521 C629.276487,79.2637521 629.769069,77.2944729 629.769069,75.3251936 L629.769069,49.2319811 L632.230931,49.2319811 L632.230931,75.3251936 C632.230931,77.2944729 633.707628,79.2637521 636.169489,79.2637521 C638.631351,79.2637521 639.615465,77.2944729 639.615465,75.3251936 L639.615465,31.0158855 C639.615465,30.031771 640.108048,29.5391887 641.092162,29.5391887 C642.077327,29.5391887 642.569909,30.031771 642.569909,31.0158855 L642.569909,42.3389786 C642.077327,43.3241434 643.061442,44.3093081 644.539189,44.3093081 C646.015886,44.3093081 647,43.3241434 647,41.8474465 L647,22.1546541 C647,19.2002101 645.030721,17.2309308 642.077327,17.2309308 L642.077327,17.2309308 Z" id="Page-1-Copy-15" opacity="0.2"></path>
                <path d="M426.245766,12.3082578 C429.692792,12.3082578 432.646186,9.35381384 432.646186,5.90783773 C432.646186,2.46186163 429.20021,0 426.245766,0 C423.292372,0 419.846396,2.95339372 419.846396,6.40042011 C419.846396,9.84639622 422.79979,12.3082578 426.245766,12.3082578 L426.245766,12.3082578 Z M437.077327,17.2309308 L414.922673,17.2309308 C411.969279,17.2309308 410,19.2002101 410,22.1546541 L410,41.8474465 C410,43.3241434 410.984114,44.3093081 412.460811,44.3093081 C413.938558,44.3093081 414.922673,43.3241434 414.922673,41.8474465 L414.922673,31.0158855 C414.922673,30.031771 415.415255,29.5391887 416.39937,29.5391887 C417.384535,29.5391887 417.877117,30.031771 417.877117,31.0158855 L417.877117,75.3251936 C417.877117,77.2944729 419.353814,79.2637521 421.815675,79.2637521 C424.276487,79.2637521 424.769069,77.2944729 424.769069,75.3251936 L424.769069,49.2319811 L427.230931,49.2319811 L427.230931,75.3251936 C427.230931,77.2944729 428.707628,79.2637521 431.169489,79.2637521 C433.631351,79.2637521 434.615465,77.2944729 434.615465,75.3251936 L434.615465,31.0158855 C434.615465,30.031771 435.108048,29.5391887 436.092162,29.5391887 C437.077327,29.5391887 437.569909,30.031771 437.569909,31.0158855 L437.569909,42.3389786 C437.077327,43.3241434 438.061442,44.3093081 439.539189,44.3093081 C441.015886,44.3093081 442,43.3241434 442,41.8474465 L442,22.1546541 C442,19.2002101 440.030721,17.2309308 437.077327,17.2309308 L437.077327,17.2309308 Z" id="Page-1-Copy" opacity="0.2"></path>
                <path d="M918.245766,12.3082578 C921.692792,12.3082578 924.646186,9.35381384 924.646186,5.90783773 C924.646186,2.46186163 921.20021,0 918.245766,0 C915.292372,0 911.846396,2.95339372 911.846396,6.40042011 C911.846396,9.84639622 914.79979,12.3082578 918.245766,12.3082578 L918.245766,12.3082578 Z M929.077327,17.2309308 L906.922673,17.2309308 C903.969279,17.2309308 902,19.2002101 902,22.1546541 L902,41.8474465 C902,43.3241434 902.984114,44.3093081 904.460811,44.3093081 C905.938558,44.3093081 906.922673,43.3241434 906.922673,41.8474465 L906.922673,31.0158855 C906.922673,30.031771 907.415255,29.5391887 908.39937,29.5391887 C909.384535,29.5391887 909.877117,30.031771 909.877117,31.0158855 L909.877117,75.3251936 C909.877117,77.2944729 911.353814,79.2637521 913.815675,79.2637521 C916.276487,79.2637521 916.769069,77.2944729 916.769069,75.3251936 L916.769069,49.2319811 L919.230931,49.2319811 L919.230931,75.3251936 C919.230931,77.2944729 920.707628,79.2637521 923.169489,79.2637521 C925.631351,79.2637521 926.615465,77.2944729 926.615465,75.3251936 L926.615465,31.0158855 C926.615465,30.031771 927.108048,29.5391887 928.092162,29.5391887 C929.077327,29.5391887 929.569909,30.031771 929.569909,31.0158855 L929.569909,42.3389786 C929.077327,43.3241434 930.061442,44.3093081 931.539189,44.3093081 C933.015886,44.3093081 934,43.3241434 934,41.8474465 L934,22.1546541 C934,19.2002101 932.030721,17.2309308 929.077327,17.2309308 L929.077327,17.2309308 Z" id="Page-1-Copy-16" opacity="0.2"></path>
                <path d="M180.245766,12.3082578 C183.692792,12.3082578 186.646186,9.35381384 186.646186,5.90783773 C186.646186,2.46186163 183.20021,0 180.245766,0 C177.292372,0 173.846396,2.95339372 173.846396,6.40042011 C173.846396,9.84639622 176.79979,12.3082578 180.245766,12.3082578 L180.245766,12.3082578 Z M191.077327,17.2309308 L168.922673,17.2309308 C165.969279,17.2309308 164,19.2002101 164,22.1546541 L164,41.8474465 C164,43.3241434 164.984114,44.3093081 166.460811,44.3093081 C167.938558,44.3093081 168.922673,43.3241434 168.922673,41.8474465 L168.922673,31.0158855 C168.922673,30.031771 169.415255,29.5391887 170.39937,29.5391887 C171.384535,29.5391887 171.877117,30.031771 171.877117,31.0158855 L171.877117,75.3251936 C171.877117,77.2944729 173.353814,79.2637521 175.815675,79.2637521 C178.276487,79.2637521 178.769069,77.2944729 178.769069,75.3251936 L178.769069,49.2319811 L181.230931,49.2319811 L181.230931,75.3251936 C181.230931,77.2944729 182.707628,79.2637521 185.169489,79.2637521 C187.631351,79.2637521 188.615465,77.2944729 188.615465,75.3251936 L188.615465,31.0158855 C188.615465,30.031771 189.108048,29.5391887 190.092162,29.5391887 C191.077327,29.5391887 191.569909,30.031771 191.569909,31.0158855 L191.569909,42.3389786 C191.077327,43.3241434 192.061442,44.3093081 193.539189,44.3093081 C195.015886,44.3093081 196,43.3241434 196,41.8474465 L196,22.1546541 C196,19.2002101 194.030721,17.2309308 191.077327,17.2309308 L191.077327,17.2309308 Z" id="Page-1-Copy-6" opacity="0.2"></path>
                <path d="M672.245766,12.3082578 C675.692792,12.3082578 678.646186,9.35381384 678.646186,5.90783773 C678.646186,2.46186163 675.20021,0 672.245766,0 C669.292372,0 665.846396,2.95339372 665.846396,6.40042011 C665.846396,9.84639622 668.79979,12.3082578 672.245766,12.3082578 L672.245766,12.3082578 Z M683.077327,17.2309308 L660.922673,17.2309308 C657.969279,17.2309308 656,19.2002101 656,22.1546541 L656,41.8474465 C656,43.3241434 656.984114,44.3093081 658.460811,44.3093081 C659.938558,44.3093081 660.922673,43.3241434 660.922673,41.8474465 L660.922673,31.0158855 C660.922673,30.031771 661.415255,29.5391887 662.39937,29.5391887 C663.384535,29.5391887 663.877117,30.031771 663.877117,31.0158855 L663.877117,75.3251936 C663.877117,77.2944729 665.353814,79.2637521 667.815675,79.2637521 C670.276487,79.2637521 670.769069,77.2944729 670.769069,75.3251936 L670.769069,49.2319811 L673.230931,49.2319811 L673.230931,75.3251936 C673.230931,77.2944729 674.707628,79.2637521 677.169489,79.2637521 C679.631351,79.2637521 680.615465,77.2944729 680.615465,75.3251936 L680.615465,31.0158855 C680.615465,30.031771 681.108048,29.5391887 682.092162,29.5391887 C683.077327,29.5391887 683.569909,30.031771 683.569909,31.0158855 L683.569909,42.3389786 C683.077327,43.3241434 684.061442,44.3093081 685.539189,44.3093081 C687.015886,44.3093081 688,43.3241434 688,41.8474465 L688,22.1546541 C688,19.2002101 686.030721,17.2309308 683.077327,17.2309308 L683.077327,17.2309308 Z" id="Page-1-Copy-17" opacity="0.2"></path>
                <path d="M467.245766,12.3082578 C470.692792,12.3082578 473.646186,9.35381384 473.646186,5.90783773 C473.646186,2.46186163 470.20021,0 467.245766,0 C464.292372,0 460.846396,2.95339372 460.846396,6.40042011 C460.846396,9.84639622 463.79979,12.3082578 467.245766,12.3082578 L467.245766,12.3082578 Z M478.077327,17.2309308 L455.922673,17.2309308 C452.969279,17.2309308 451,19.2002101 451,22.1546541 L451,41.8474465 C451,43.3241434 451.984114,44.3093081 453.460811,44.3093081 C454.938558,44.3093081 455.922673,43.3241434 455.922673,41.8474465 L455.922673,31.0158855 C455.922673,30.031771 456.415255,29.5391887 457.39937,29.5391887 C458.384535,29.5391887 458.877117,30.031771 458.877117,31.0158855 L458.877117,75.3251936 C458.877117,77.2944729 460.353814,79.2637521 462.815675,79.2637521 C465.276487,79.2637521 465.769069,77.2944729 465.769069,75.3251936 L465.769069,49.2319811 L468.230931,49.2319811 L468.230931,75.3251936 C468.230931,77.2944729 469.707628,79.2637521 472.169489,79.2637521 C474.631351,79.2637521 475.615465,77.2944729 475.615465,75.3251936 L475.615465,31.0158855 C475.615465,30.031771 476.108048,29.5391887 477.092162,29.5391887 C478.077327,29.5391887 478.569909,30.031771 478.569909,31.0158855 L478.569909,42.3389786 C478.077327,43.3241434 479.061442,44.3093081 480.539189,44.3093081 C482.015886,44.3093081 483,43.3241434 483,41.8474465 L483,22.1546541 C483,19.2002101 481.030721,17.2309308 478.077327,17.2309308 L478.077327,17.2309308 Z" id="Page-1-Copy" opacity="0.2"></path>
                <path d="M959.245766,12.3082578 C962.692792,12.3082578 965.646186,9.35381384 965.646186,5.90783773 C965.646186,2.46186163 962.20021,0 959.245766,0 C956.292372,0 952.846396,2.95339372 952.846396,6.40042011 C952.846396,9.84639622 955.79979,12.3082578 959.245766,12.3082578 L959.245766,12.3082578 Z M970.077327,17.2309308 L947.922673,17.2309308 C944.969279,17.2309308 943,19.2002101 943,22.1546541 L943,41.8474465 C943,43.3241434 943.984114,44.3093081 945.460811,44.3093081 C946.938558,44.3093081 947.922673,43.3241434 947.922673,41.8474465 L947.922673,31.0158855 C947.922673,30.031771 948.415255,29.5391887 949.39937,29.5391887 C950.384535,29.5391887 950.877117,30.031771 950.877117,31.0158855 L950.877117,75.3251936 C950.877117,77.2944729 952.353814,79.2637521 954.815675,79.2637521 C957.276487,79.2637521 957.769069,77.2944729 957.769069,75.3251936 L957.769069,49.2319811 L960.230931,49.2319811 L960.230931,75.3251936 C960.230931,77.2944729 961.707628,79.2637521 964.169489,79.2637521 C966.631351,79.2637521 967.615465,77.2944729 967.615465,75.3251936 L967.615465,31.0158855 C967.615465,30.031771 968.108048,29.5391887 969.092162,29.5391887 C970.077327,29.5391887 970.569909,30.031771 970.569909,31.0158855 L970.569909,42.3389786 C970.077327,43.3241434 971.061442,44.3093081 972.539189,44.3093081 C974.015886,44.3093081 975,43.3241434 975,41.8474465 L975,22.1546541 C975,19.2002101 973.030721,17.2309308 970.077327,17.2309308 L970.077327,17.2309308 Z" id="Page-1-Copy-18" opacity="0.2"></path>
                <path d="M999.245766,12.3082578 C1002.69279,12.3082578 1005.64619,9.35381384 1005.64619,5.90783773 C1005.64619,2.46186163 1002.20021,0 999.245766,0 C996.292372,0 992.846396,2.95339372 992.846396,6.40042011 C992.846396,9.84639622 995.79979,12.3082578 999.245766,12.3082578 L999.245766,12.3082578 Z M1010.07733,17.2309308 L987.922673,17.2309308 C984.969279,17.2309308 983,19.2002101 983,22.1546541 L983,41.8474465 C983,43.3241434 983.984114,44.3093081 985.460811,44.3093081 C986.938558,44.3093081 987.922673,43.3241434 987.922673,41.8474465 L987.922673,31.0158855 C987.922673,30.031771 988.415255,29.5391887 989.39937,29.5391887 C990.384535,29.5391887 990.877117,30.031771 990.877117,31.0158855 L990.877117,75.3251936 C990.877117,77.2944729 992.353814,79.2637521 994.815675,79.2637521 C997.276487,79.2637521 997.769069,77.2944729 997.769069,75.3251936 L997.769069,49.2319811 L1000.23093,49.2319811 L1000.23093,75.3251936 C1000.23093,77.2944729 1001.70763,79.2637521 1004.16949,79.2637521 C1006.63135,79.2637521 1007.61547,77.2944729 1007.61547,75.3251936 L1007.61547,31.0158855 C1007.61547,30.031771 1008.10805,29.5391887 1009.09216,29.5391887 C1010.07733,29.5391887 1010.56991,30.031771 1010.56991,31.0158855 L1010.56991,42.3389786 C1010.07733,43.3241434 1011.06144,44.3093081 1012.53919,44.3093081 C1014.01589,44.3093081 1015,43.3241434 1015,41.8474465 L1015,22.1546541 C1015,19.2002101 1013.03072,17.2309308 1010.07733,17.2309308 L1010.07733,17.2309308 Z" id="Page-1-Copy-12" opacity="0.2"></path>
                <path d="M221.245766,12.3082578 C224.692792,12.3082578 227.646186,9.35381384 227.646186,5.90783773 C227.646186,2.46186163 224.20021,0 221.245766,0 C218.292372,0 214.846396,2.95339372 214.846396,6.40042011 C214.846396,9.84639622 217.79979,12.3082578 221.245766,12.3082578 L221.245766,12.3082578 Z M232.077327,17.2309308 L209.922673,17.2309308 C206.969279,17.2309308 205,19.2002101 205,22.1546541 L205,41.8474465 C205,43.3241434 205.984114,44.3093081 207.460811,44.3093081 C208.938558,44.3093081 209.922673,43.3241434 209.922673,41.8474465 L209.922673,31.0158855 C209.922673,30.031771 210.415255,29.5391887 211.39937,29.5391887 C212.384535,29.5391887 212.877117,30.031771 212.877117,31.0158855 L212.877117,75.3251936 C212.877117,77.2944729 214.353814,79.2637521 216.815675,79.2637521 C219.276487,79.2637521 219.769069,77.2944729 219.769069,75.3251936 L219.769069,49.2319811 L222.230931,49.2319811 L222.230931,75.3251936 C222.230931,77.2944729 223.707628,79.2637521 226.169489,79.2637521 C228.631351,79.2637521 229.615465,77.2944729 229.615465,75.3251936 L229.615465,31.0158855 C229.615465,30.031771 230.108048,29.5391887 231.092162,29.5391887 C232.077327,29.5391887 232.569909,30.031771 232.569909,31.0158855 L232.569909,42.3389786 C232.077327,43.3241434 233.061442,44.3093081 234.539189,44.3093081 C236.015886,44.3093081 237,43.3241434 237,41.8474465 L237,22.1546541 C237,19.2002101 235.030721,17.2309308 232.077327,17.2309308 L232.077327,17.2309308 Z" id="Page-1-Copy-7" opacity="0.2"></path>
                <path d="M713.245766,12.3082578 C716.692792,12.3082578 719.646186,9.35381384 719.646186,5.90783773 C719.646186,2.46186163 716.20021,0 713.245766,0 C710.292372,0 706.846396,2.95339372 706.846396,6.40042011 C706.846396,9.84639622 709.79979,12.3082578 713.245766,12.3082578 L713.245766,12.3082578 Z M724.077327,17.2309308 L701.922673,17.2309308 C698.969279,17.2309308 697,19.2002101 697,22.1546541 L697,41.8474465 C697,43.3241434 697.984114,44.3093081 699.460811,44.3093081 C700.938558,44.3093081 701.922673,43.3241434 701.922673,41.8474465 L701.922673,31.0158855 C701.922673,30.031771 702.415255,29.5391887 703.39937,29.5391887 C704.384535,29.5391887 704.877117,30.031771 704.877117,31.0158855 L704.877117,75.3251936 C704.877117,77.2944729 706.353814,79.2637521 708.815675,79.2637521 C711.276487,79.2637521 711.769069,77.2944729 711.769069,75.3251936 L711.769069,49.2319811 L714.230931,49.2319811 L714.230931,75.3251936 C714.230931,77.2944729 715.707628,79.2637521 718.169489,79.2637521 C720.631351,79.2637521 721.615465,77.2944729 721.615465,75.3251936 L721.615465,31.0158855 C721.615465,30.031771 722.108048,29.5391887 723.092162,29.5391887 C724.077327,29.5391887 724.569909,30.031771 724.569909,31.0158855 L724.569909,42.3389786 C724.077327,43.3241434 725.061442,44.3093081 726.539189,44.3093081 C728.015886,44.3093081 729,43.3241434 729,41.8474465 L729,22.1546541 C729,19.2002101 727.030721,17.2309308 724.077327,17.2309308 L724.077327,17.2309308 Z" id="Page-1-Copy-19"></path>
            </g>
        </g>
    </g>
</svg>