<?xml version="1.0" encoding="UTF-8" standalone="no"?>
<svg width="202px" height="115px" viewBox="0 0 202 115" version="1.1" xmlns="http://www.w3.org/2000/svg" xmlns:xlink="http://www.w3.org/1999/xlink">
    <!-- Generator: Sketch 3.8.3 (29802) - http://www.bohemiancoding.com/sketch -->
    <title>gun1</title>
    <desc>Created with Sketch.</desc>
    <defs></defs>
    <g id="Page-1" stroke="none" stroke-width="1" fill="none" fill-rule="evenodd">
        <g id="Desktop-Copy" transform="translate(-91.000000, -458.000000)" fill="#FFFFFF">
            <path d="M300.237051,503.747273 L300.237051,491.863057 L297.126139,491.863057 C297.126139,491.863057 294.941692,491.815698 294.237223,493.908386 C293.529794,496.302989 290.859916,503.747273 290.859916,503.747273 L290.859916,505.505486 L281.669258,505.505486 L281.669258,503.747273 C274.742965,503.747273 273.319227,495.030208 273.319227,495.030208 L265.274071,495.030208 L265.274071,496.601944 L258.359618,496.601944 L258.359618,495.030208 L256.693164,495.030208 C256.693164,495.030208 256.104133,494.219181 255.272386,494.219181 L254.254162,494.219181 L230.817245,494.219181 L229.78718,494.219181 C228.955433,494.219181 228.366402,495.412042 228.366402,495.412042 L228.366402,490.877393 L212.202093,490.877393 L212.202093,490.300202 C212.202093,489.77925 211.784739,489.364856 211.263787,489.364856 C210.745795,489.364856 210.328442,489.77925 210.328442,490.300202 L210.328442,494.207341 L163.430927,494.207341 C159.905622,494.207341 158.206608,498.972867 158.206608,498.972867 L157.892853,498.972867 C154.367547,498.972867 152.668534,503.735434 152.668534,503.735434 L150.632085,504.303745 L146.482229,505.425568 L135.808634,508.290803 C133.357792,508.950873 130.098883,508.696317 128.571546,507.713612 C127.04421,506.730907 123.726101,506.153716 121.195341,506.417152 L92.4956246,509.495505 C92.4956246,509.495505 90.0566223,509.240948 90.0566223,511.194518 L90.0566223,536.099573 C90.0566223,537.360513 92.4956246,537.289475 92.4956246,537.289475 L96.7638785,537.289475 C99.1111222,537.289475 102.938343,536.481407 105.285587,535.498702 L146.494069,518.129691 L149.232027,516.975309 L151.845666,519.310713 L153.130286,520.858769 C154.84114,523.623366 152.541256,523.102414 151.499352,526.269565 C149.498423,532.307872 146.168474,544.517683 146.144795,544.67752 C145.937598,545.846702 146.621347,546.944845 147.672131,547.128362 C147.70765,547.140202 147.74021,547.140202 147.775729,547.140202 C147.974046,547.163882 160.0329,549.268409 160.0329,549.268409 C160.494653,549.20033 160.829127,548.723778 160.784728,548.205786 C160.772888,548.054828 160.713689,547.90387 160.64561,547.788432 C160.610091,547.741073 160.574571,547.684834 160.530172,547.637474 L159.615546,546.503812 C159.476428,546.343974 159.476428,546.101258 159.591866,545.914781 L159.651066,545.834862 L159.662905,545.823023 L161.93911,542.08756 C161.93911,542.08756 165.408177,527.127952 165.650893,526.376123 C165.650893,526.376123 165.952808,524.537992 167.663662,523.611526 C167.699181,523.587847 167.731741,523.555287 167.76726,523.531607 C167.941897,525.067824 168.089895,526.074208 168.089895,526.074208 C168.530928,527.207871 169.617231,528.004098 170.913691,528.004098 L185.331628,528.004098 C186.613288,528.004098 187.711431,527.207871 188.152465,526.074208 L188.164304,526.050528 C188.164304,526.038689 188.176144,526.026849 188.176144,526.017969 L188.590538,523.623366 L190.174113,523.623366 C191.597851,534.237762 197.390482,548.377463 219.809175,562.540844 L222.04098,559.015538 L226.214516,552.414841 L227.069943,551.062141 L229.8227,546.702129 C208.155835,533.012341 208.339352,522.433464 208.50215,513.935436 L208.50215,513.713439 L217.047538,513.713439 L217.047538,513.68088 L256.728684,513.68088 L256.728684,513.124408 L258.392178,513.124408 L258.392178,511.608912 L278.638265,511.608912 L278.638265,513.68976 L282.302688,513.68976 L282.302688,511.608912 L300.456087,511.608912 L300.456087,509.344547 L304.943378,509.344547 L304.943378,503.702874 L300.237051,503.702874 L300.237051,503.747273 Z M186.219615,523.484248 C186.000578,524.745189 184.730758,525.784133 183.398778,525.784133 L173.305334,525.784133 C171.964475,525.784133 170.890012,524.697829 170.901852,523.39249 L170.96993,516.581635 C170.98177,515.264455 172.091753,514.187032 173.420773,514.187032 L175.341783,514.187032 C175.167146,514.187032 174.995468,514.210712 174.820831,514.246231 C174.797151,514.441588 174.761632,514.651745 174.749792,514.847102 C174.729072,515.217096 174.717232,515.59893 174.717232,515.980764 C174.729072,516.362598 174.740912,516.756272 174.785311,517.138106 L174.820831,517.425222 C174.832671,517.51698 174.844511,517.623539 174.85635,517.715297 C174.86819,517.807056 174.87707,517.898815 174.88891,518.005373 C174.90075,518.097131 174.912589,518.18889 174.936269,518.280649 C174.948109,518.375367 174.959949,518.467126 174.983628,518.558884 C175.004348,518.650643 175.016188,518.745361 175.039867,518.82528 C175.075387,519.008797 175.110906,519.183435 175.155306,519.358072 C175.178985,519.437991 175.190825,519.529749 175.214505,519.609668 C175.226345,519.657027 175.238184,519.692547 175.247064,519.736946 C175.258904,519.784305 175.270744,519.819825 175.282584,519.864224 C175.329943,520.027022 175.362502,520.189819 175.409862,520.340777 C175.457221,520.488774 175.50162,520.639732 175.54898,520.79069 C175.572659,520.858769 175.596339,520.929808 175.617059,520.997887 C175.640738,521.068926 175.664418,521.137004 175.688097,521.196204 C175.735457,521.323482 175.779856,521.45076 175.827215,521.578038 C175.871615,521.693476 175.918974,521.808914 175.954493,521.912512 C175.998893,522.016111 176.034412,522.119709 176.069932,522.202588 C176.102491,522.294347 176.13801,522.374265 176.17353,522.445304 C176.300808,522.74426 176.368887,522.907057 176.368887,522.907057 C176.611603,523.460568 177.224314,523.774324 177.828144,523.599686 C178.473414,523.416169 178.831569,522.73242 178.648052,522.09603 L178.636212,522.05163 C178.636212,522.05163 178.588853,521.900673 178.508934,521.622437 C178.485254,521.554358 178.461575,521.483319 178.440855,521.391561 C178.417175,521.311642 178.393496,521.216923 178.369816,521.125165 C178.346136,521.033406 178.322457,520.929808 178.289897,520.826209 C178.266218,520.710771 178.242538,520.604213 178.207018,520.488774 C178.198139,520.432535 178.186299,520.373336 178.162619,520.305257 C178.150779,520.246058 178.13894,520.177979 178.1271,520.11878 C178.10342,519.991502 178.07974,519.864224 178.059021,519.728066 C178.035341,519.588948 178.011662,519.449831 177.987982,519.310713 C177.987982,519.275193 177.976142,519.242634 177.964302,519.207114 C177.964302,519.171595 177.955422,519.136075 177.955422,519.103516 C177.943583,519.032477 177.931743,518.964398 177.931743,518.881519 C177.908063,518.733522 177.896223,518.582564 177.884383,518.431606 C177.872544,518.351688 177.872544,518.280649 177.860704,518.20073 C177.860704,518.120811 177.848864,518.049772 177.848864,517.969853 C177.848864,517.886975 177.837024,517.818896 177.837024,517.738977 L177.837024,517.508101 L177.837024,517.274264 L177.837024,517.043388 C177.837024,516.732593 177.860704,516.430677 177.896223,516.131722 C177.931743,515.829807 177.964302,515.542691 178.023501,515.276295 C178.070861,514.998059 178.13894,514.743503 178.207018,514.500787 C178.230698,514.397189 178.266218,514.31431 178.301737,514.222551 L185.355308,514.222551 C186.696167,514.222551 187.607833,515.252615 187.400636,516.525396 L186.219615,523.484248 Z M258.368498,501.35563 L270.903904,501.35563 C271.561014,501.35563 272.093806,501.885462 272.093806,502.545532 C272.093806,503.205602 271.561014,503.735434 270.903904,503.735434 L258.368498,503.735434 L258.368498,501.35563 Z M277.990035,510.001657 L258.368498,510.001657 L258.368498,508.755516 L277.990035,508.755516 C278.339309,508.755516 278.614585,509.030792 278.614585,509.377106 C278.614585,509.726381 278.339309,510.001657 277.990035,510.001657 L277.990035,510.001657 Z M290.247205,510.001657 L282.906519,510.001657 C282.557244,510.001657 282.281968,509.726381 282.281968,509.377106 C282.281968,509.030792 282.557244,508.755516 282.906519,508.755516 L290.247205,508.755516 C290.59352,508.755516 290.871755,509.030792 290.871755,509.377106 C290.871755,509.726381 290.58168,510.001657 290.247205,510.001657 L290.247205,510.001657 Z M298.295321,503.608156 L292.757246,503.608156 L294.512499,498.312798 L298.30716,498.312798 L298.30716,503.608156 L298.295321,503.608156 Z" id="gun1" transform="translate(197.500000, 525.952850) rotate(-20.000000) translate(-197.500000, -525.952850) "></path>
        </g>
    </g>
</svg>