<?xml version="1.0" encoding="UTF-8" standalone="no"?>
<svg width="120px" height="119px" viewBox="0 0 120 119" version="1.1" xmlns="http://www.w3.org/2000/svg" xmlns:xlink="http://www.w3.org/1999/xlink">
    <!-- Generator: Sketch 3.8.3 (29802) - http://www.bohemiancoding.com/sketch -->
    <title>gun2</title>
    <desc>Created with Sketch.</desc>
    <defs></defs>
    <g id="Page-1" stroke="none" stroke-width="1" fill="none" fill-rule="evenodd">
        <g id="Desktop-Copy" transform="translate(-447.000000, -461.000000)" fill="#FFFFFF">
            <path d="M457.581265,481.491086 L457.581265,497.862043 C457.581265,500.482574 459.715967,502.610733 462.328319,502.610733 L474.31046,502.610733 C474.31046,502.610733 485.594119,503.983159 485.594119,515.063981 C485.594119,526.143167 480.724381,529.063047 480.724381,542.483045 C480.724381,549.472763 485.594119,549.472763 485.594119,549.472763 L489.10779,549.472763 L489.10779,572.725477 L504.660854,572.725477 L504.660854,549.472763 L508.143445,549.472763 L508.143445,517.542198 C509.409544,519.076567 511.274342,520.303407 513.983205,520.303407 L527.203637,520.303407 C530.68132,519.971342 537.235919,517.403156 537.235919,510.079737 L537.235919,502.610733 L557.863195,502.610733 C560.469004,502.610733 562.597163,500.489117 562.597163,497.862043 L562.597163,493.862544 L567.849676,493.862544 L567.849676,491.140594 L580.2653,491.140594 L580.2653,484.73158 L567.849676,484.73158 L567.849676,482.00963 L562.597163,482.00963 L562.597163,481.491086 C562.597163,478.878733 560.469004,476.750574 557.863195,476.750574 L555.983676,476.750574 L555.983676,472.405924 C555.983676,472.405924 555.856084,470.156716 553.734468,470.156716 C551.612853,470.156716 547.338541,472.731445 547.338541,474.444115 L547.338541,476.757118 L536.565247,476.757118 L536.565247,472.45009 L528.335602,472.45009 L528.335602,476.757118 L474.398792,476.757118 L474.398792,473.683474 L470.922745,473.683474 L470.922745,471.498062 L468.220424,471.498062 L468.220424,468.826822 L464.629872,468.826822 L464.629872,476.757118 L462.328319,476.757118 C459.709424,476.750574 457.581265,478.878733 457.581265,481.491086 L457.581265,481.491086 Z M510.201265,502.610733 L516.418892,502.610733 C515.198595,514.661577 523.529659,514.507813 521.082521,510.519764 C518.692636,506.616776 520.552526,503.037674 522.935868,502.610733 L533.121915,502.610733 L533.121915,510.079737 C533.121915,515.382959 527.447369,516.137057 527.01225,516.181223 L513.983205,516.181223 C511.051875,516.181223 510.309227,513.173011 510.201265,512.698633 L510.201265,502.610733 L510.201265,502.610733 Z" id="gun2" transform="translate(518.923282, 520.776149) rotate(-20.000000) translate(-518.923282, -520.776149) "></path>
        </g>
    </g>
</svg>