<?xml version="1.0" encoding="UTF-8" standalone="no"?>
<svg width="98px" height="99px" viewBox="0 0 98 99" version="1.1" xmlns="http://www.w3.org/2000/svg" xmlns:xlink="http://www.w3.org/1999/xlink">
    <!-- Generator: Sketch 3.8.3 (29802) - http://www.bohemiancoding.com/sketch -->
    <title>gun3</title>
    <desc>Created with Sketch.</desc>
    <defs></defs>
    <g id="Page-1" stroke="none" stroke-width="1" fill="none" fill-rule="evenodd">
        <g id="Desktop-Copy" transform="translate(-759.000000, -467.000000)" fill="#FFFFFF">
            <path d="M866.958945,533.524433 L858.389255,512.541668 C854.787984,504.103909 867.083626,502.613528 867.083626,502.613528 C869.812125,501.24348 867.083626,499.760348 867.083626,499.760348 C864.228996,500.376507 862.116657,496.781036 862.116657,496.781036 L860.501594,493.427679 C859.630272,491.440021 859.386708,491.190658 860.378362,487.345823 C861.368567,483.49519 858.203682,483.682212 857.648414,484.237481 C857.087346,484.797098 855.349052,485.664071 854.045693,484.362162 C852.743785,483.058804 849.452769,483.121145 849.452769,483.121145 L848.213201,480.63476 L846.847502,480.63476 L845.483253,483.121145 L821.392145,483.121145 L821.392145,483.869235 L770.988857,483.869235 L770.988857,482.622418 L769.992853,482.622418 C769.868172,481.626414 769.125881,480.884124 769.125881,480.884124 C765.025884,480.884124 764.158911,483.988117 764.158911,483.988117 L760.925886,483.988117 C759.06871,487.340024 761.056367,491.061627 761.056367,491.061627 L764.657638,491.061627 L764.657638,501.118798 L772.229874,501.118798 L772.847483,502.732411 L791.722258,502.732411 C809.351666,502.732411 806.249122,517.508638 806.249122,517.508638 C819.534968,523.590494 827.853845,519.745659 827.853845,519.745659 C834.434427,518.37996 835.673995,523.964539 835.673995,523.964539 L840.143688,541.718628 C840.516283,544.822622 839.99001,546.679799 839.99001,546.679799 L840.001609,546.934961 L839.984211,546.934961 L839.984211,549.443092 C839.984211,549.443092 839.882726,550.802992 841.7573,550.586974 L862.592187,548.831282 C863.096713,549.686656 864.018777,550.259322 865.078571,550.259322 C866.680586,550.259322 867.972346,548.961763 867.972346,547.365548 C867.972346,547.048044 867.910005,546.798681 867.812869,546.588462 L868.447876,546.582663 C869.942606,538.269585 866.958945,533.524433 866.958945,533.524433 L866.958945,533.524433 Z M858.825641,484.594128 C859.347564,484.594128 859.772351,485.018916 859.772351,485.539389 C859.772351,486.059863 859.347564,486.48465 858.825641,486.48465 C858.305167,486.48465 857.87458,486.059863 857.87458,485.539389 C857.87458,485.018916 858.299368,484.594128 858.825641,484.594128 L858.825641,484.594128 Z M832.571451,513.905918 C832.197406,516.142939 829.841503,517.383956 829.841503,517.383956 C821.782138,520.090708 816.612198,519.326671 812.523799,518.103051 C807.533633,516.602521 807.868534,511.793579 807.868534,511.793579 C807.868534,505.212996 814.698479,505.337678 814.698479,505.337678 L820.281608,505.337678 C823.385602,512.785233 815.813365,516.142939 815.813365,516.142939 C814.817362,516.386503 815.813365,517.134593 815.813365,517.134593 C820.40629,517.009911 824.127893,509.562357 824.127893,509.562357 L824.003211,506.459813 L825.735706,505.337678 C832.571451,505.337678 832.945496,511.674696 832.571451,513.905918 L832.571451,513.905918 Z M866.958945,547.369897 C866.958945,548.406495 866.115169,549.250271 865.078571,549.250271 C864.041974,549.250271 863.198198,548.406495 863.198198,547.369897 C863.198198,547.104586 863.254739,546.855223 863.350425,546.629056 L866.793669,546.605859 C866.896604,546.837825 866.958945,547.092988 866.958945,547.369897 L866.958945,547.369897 Z" id="gun3" transform="translate(814.500000, 515.622496) scale(-1, 1) rotate(20.000000) translate(-814.500000, -515.622496) "></path>
        </g>
    </g>
</svg>