<?xml version="1.0" encoding="UTF-8" standalone="no"?>
<svg width="650px" height="220px" viewBox="0 0 650 220" version="1.1" xmlns="http://www.w3.org/2000/svg" xmlns:xlink="http://www.w3.org/1999/xlink">
    <!-- Generator: Sketch 3.8.3 (29802) - http://www.bohemiancoding.com/sketch -->
    <title>Group 3</title>
    <desc>Created with Sketch.</desc>
    <defs></defs>
    <g id="Page-1" stroke="none" stroke-width="1" fill="none" fill-rule="evenodd">
        <g id="Desktop" transform="translate(-187.000000, -218.000000)" fill="#FFFFFF">
            <g id="Group-3" transform="translate(182.000000, 218.000000)">
                <text id="HEATCLIC" font-family="ALoveofThunder, A Love of Thunder" font-size="135" font-weight="normal">
                    <tspan x="0.7625" y="163">HEATCLIC</tspan>
                </text>
                <text id="SAVE-YOUR-FRIENDS" font-family="ProximaNova-Bold, Proxima Nova" font-size="57" font-weight="bold" letter-spacing="5.34375">
                    <tspan x="4.197625" y="219">SAVE YOUR FRIENDS</tspan>
                </text>
                <g id="Group" transform="translate(520.000000, 0.000000)">
                    <polygon id="Fill-1" points="18.5549962 52.4025625 10.2400137 45.4841713 19.3079238 42.6512564 15.8353185 28.1439909 26.606752 35.3961337 33.2837694 18.8972854 36.4693086 38.3373191 45.5610581 32.5205066 44.1018884 42.8727641 55.753393 42.8727641 45.6494625 50.7685706 47.3956982 52.4025625 61.0189195 52.4025625 56.7933866 48.4015173 70.265625 37.8943037 49.8283099 37.8943037 51.9748488 22.5258401 40.1634216 30.0680288 35.3399172 0.563796932 24.282411 27.8330855 7.98222427 16.8838498 13.3788674 39.2918883 0 43.4707356 10.7714335 52.4025625"></polygon>
                    <polygon id="Fill-2" points="41.9877326 52.2431336 39.974297 50.3220756 45.0183158 46.3607628 39.8223209 46.3607628 40.7500707 39.7254643 33.6955962 44.2847487 31.7248729 32.2061217 28.2324014 40.7892974 21.4848592 36.2766985 23.5886858 44.9443053 17.6824756 46.8266243 24.2283763 52.2431336"></polygon>
                </g>
                <g id="Group" transform="translate(520.000000, 0.000000)">
                    <polygon id="Fill-1" points="18.5549962 52.4025625 10.2400137 45.4841713 19.3079238 42.6512564 15.8353185 28.1439909 26.606752 35.3961337 33.2837694 18.8972854 36.4693086 38.3373191 45.5610581 32.5205066 44.1018884 42.8727641 55.753393 42.8727641 45.6494625 50.7685706 47.3956982 52.4025625 61.0189195 52.4025625 56.7933866 48.4015173 70.265625 37.8943037 49.8283099 37.8943037 51.9748488 22.5258401 40.1634216 30.0680288 35.3399172 0.563796932 24.282411 27.8330855 7.98222427 16.8838498 13.3788674 39.2918883 0 43.4707356 10.7714335 52.4025625"></polygon>
                    <polygon id="Fill-2" points="41.9877326 52.2431336 39.974297 50.3220756 45.0183158 46.3607628 39.8223209 46.3607628 40.7500707 39.7254643 33.6955962 44.2847487 31.7248729 32.2061217 28.2324014 40.7892974 21.4848592 36.2766985 23.5886858 44.9443053 17.6824756 46.8266243 24.2283763 52.2431336"></polygon>
                </g>
            </g>
        </g>
    </g>
</svg>