<?xml version="1.0" encoding="UTF-8" standalone="no"?>
<svg width="933px" height="823px" viewBox="0 0 933 823" version="1.1" xmlns="http://www.w3.org/2000/svg" xmlns:xlink="http://www.w3.org/1999/xlink">
    <!-- Generator: Sketch 3.8.3 (29802) - http://www.bohemiancoding.com/sketch -->
    <title>HOMEPAGE_BACKGROUND</title>
    <desc>Created with Sketch.</desc>
    <defs></defs>
    <g id="Page-1" stroke="none" stroke-width="1" fill="none" fill-rule="evenodd" opacity="0.1">
        <g id="Desktop" transform="translate(-91.000000, -201.000000)" fill="#000000">
            <g id="HOMEPAGE_BACKGROUND" transform="translate(91.000000, 122.000000)">
                <path d="M456.238653,829.178435 L453.262066,830.467976 L456.238653,829.178435 C451.59187,776.158461 447.011234,723.204618 442.347914,670.250774 C432.012543,666.69627 426.274345,661.918356 425.232539,650.097563 C424.323026,639.301791 430.011615,632.010924 438.610644,626.588239 C435.76635,594.035595 433.302397,561.036572 429.945468,528.417798 C429.631273,525.524597 429.432834,522.680994 428.9202,520.21764 C425.745174,504.991137 404.826382,504.991137 392.93657,504.147975 C342.996056,500.461211 293.584712,514.993346 253.152739,544.189876 C247.728736,548.83553 241.196781,556.903428 241.907855,564.723337 L242.238586,738.249263 L240.419561,920.553987 L248.572102,917.065614 L250.242298,738.249263 L249.928103,564.458816 L249.861956,563.814045 L249.861956,563.367665 C250.176152,558.39136 254.574886,553.613445 257.997961,550.637581 C273.558896,539.411962 290.608125,530.302512 308.699159,523.838274 C337.059418,513.637674 383.758761,506.991579 413.028532,515.307465 C421.743318,517.836949 420.784195,520.482161 421.677171,529.32709 C421.941757,531.724313 425.166393,568.525829 429.879322,622.521225 C411.275653,636.342459 412.317459,666.49788 434.542642,676.119839 C438.742937,724.163507 443.522012,778.803674 448.234942,832.600679 C460.306656,970.730358 471.931881,1103.12323 471.931881,1103.12323 C472.576809,1106.67774 471.220808,1109.32295 467.483538,1110.61249 C459.99246,1113.2577 305.34223,1160.40861 305.34223,1160.40861 C300.430862,1162.27679 293.270516,1163.18608 291.005003,1156.92024 C285.779439,1148.33983 282.67056,1140.58605 274.26997,1134.18794 C265.158306,1127.2112 252.9543,1126.36804 248.042931,1122.56554 C247.083809,1121.276 246.554638,1119.20943 246.438881,1116.81221 C246.306589,1114.49765 246.620784,1112.43107 246.620784,1112.43107 L248.439809,917.131744 L240.303805,920.620118 L238.48478,1111.85243 C237.773706,1117.39085 238.352487,1123.85508 242.17244,1128.38501 C243.974929,1130.0548 246.042003,1131.03022 248.307517,1131.80725 C272.335188,1140.71831 270.532699,1138.8336 283.580072,1160.54087 C287.581928,1170.93986 299.2733,1171.38624 307.921939,1168.16239 C312.833308,1166.67446 462.770608,1120.94535 470.129393,1118.30014 C477.306275,1115.78719 481.30813,1109.25682 479.95213,1102.03208 C472.130321,1011.10291 464.192755,920.107608 456.238653,829.178435 L456.238653,829.178435 Z" id="Fill-1"></path>
                <path d="M429.234395,649.700782 C430.921128,669.407613 451.459578,668.432191 466.83861,666.63014 C474.643883,672.697596 485.376133,674.499647 495.132723,670.366503 C509.46995,664.299047 516.117661,647.8326 510.048731,633.498856 C503.979801,619.231242 487.509353,612.502484 473.172126,618.586472 C468.641099,620.454653 464.903829,623.430517 462.059535,627.034619 L447.705771,628.32416 C436.725472,629.233451 428.275272,638.65702 429.234395,649.700782 L429.234395,649.700782 Z M464.506951,641.054244 C465.218024,637.946119 466.706318,634.986788 468.508806,632.143185 C470.509734,629.564103 473.221736,627.431401 476.462908,626.075729 C486.599841,621.744194 498.357359,626.522109 502.6238,636.656578 C506.939852,646.807581 502.160776,658.562243 492.023844,662.877245 C484.400474,666.11763 475.817981,664.232917 470.261685,658.810231 C468.376514,657.00818 466.904757,654.809348 465.796805,652.230266 C464.242365,648.543501 463.862023,644.674878 464.506951,641.054244 L464.506951,641.054244 Z M448.482991,636.342459 L457.462361,635.565428 C455.395287,641.831275 455.461433,648.874153 458.239581,655.387988 C458.702606,656.495671 459.281387,657.652951 459.860168,658.677971 L450.483919,659.521132 C443.637769,660.099772 437.833424,655.255727 437.32079,648.989881 C436.791619,642.740567 441.636841,636.9211 448.482991,636.342459 L448.482991,636.342459 Z" id="Fill-4"></path>
                <path d="M1197.22691,187.185413 C1206.07399,179.762286 1198.11988,158.964304 1194.76296,151.012135 C1193.4731,147.854413 1191.53832,145.407591 1189.60354,143.589008 C1192.76203,141.076056 1194.18417,138.034062 1191.8029,132.677507 L1175.44821,92.5694758 C1174.55524,89.2133627 1164.53406,52.3953141 1158.46513,37.9954397 C1154.97591,29.861412 1148.70854,24.7693783 1140.63868,26.1911799 L1140.17566,25.0834973 C1135.39658,13.7917473 1123.70521,-0.624659678 1110.01291,6.28595743 L1107.23476,7.45977038 L1106.27564,6.93072792 C1105.81261,6.55047866 1105.03539,5.97183847 1103.94398,5.26093766 C1082.95904,-7.91552605 1062.2883,7.84001965 1048.7779,23.5955653 C1044.37917,28.7041316 1040.90648,33.415916 1039.21975,35.7470093 L616.693228,211.471768 C614.560007,212.364527 613.600885,214.894012 614.560007,216.960584 C615.46952,218.894895 616.24674,220.829207 616.957814,222.763518 L458.371874,289.869247 C454.436165,285.339321 448.813723,279.784376 445.456794,281.140047 C445.456794,281.140047 288.028416,345.154184 191.454705,384.534782 C188.097777,381.046408 184.228214,378.268936 179.118406,377.045525 C171.114694,375.177344 169.626401,380.467768 166.137179,372.26761 C163.871666,366.977186 158.579956,366.200154 154.181222,368.531248 C149.468292,370.068777 146.375949,374.466443 148.575316,379.690737 C152.064538,387.890895 147.268925,385.311813 143.019021,392.288561 C140.422775,396.553965 139.711702,401.067359 139.777848,405.663415 C126.350134,411.152231 118.147983,414.574474 117.635348,414.822463 C108.259099,419.666508 90.7633826,432.198201 90.3665043,457.261588 L90.3003579,461.973372 C88.4317228,469.66102 81.7178655,476.307116 74.4748372,478.952328 C53.9363871,486.639976 48.313945,486.061336 29.9748619,482.308441 C4.26045775,477.084147 -7.05057276,498.907148 5.88104399,509.058151 C15.6872444,516.795397 50.3148729,516.729266 65.1812712,519.391011 C89.7215771,523.706014 92.0532369,526.037107 101.859437,549.546431 C105.811683,559.03613 108.457538,567.56694 108.655978,567.50081 C110.656906,574.659415 112.260955,582.214803 112.839736,589.522202 C114.791054,613.031526 94.1203112,630.985905 78.2286441,645.121258 C47.4044323,658.810231 -1.16354519,676.31823 17.2416843,721.782816 C21.1277839,731.338646 27.6432021,733.983858 37.6643783,732.247938 C51.290532,729.850714 65.1812712,723.717128 78.2947905,719.253332 C104.769878,711.764075 129.839355,704.73773 155.934101,721.204176 C168.005815,729.139813 176.026063,740.315835 180.540553,756.203641 C191.586998,803.22229 184.674702,863.797651 183.831335,869.154206 C181.896554,880.710477 186.096849,893.68855 199.987588,887.488834 L206.966031,884.529502 C205.808469,885.934771 204.502078,887.621094 203.857151,889.307417 C201.988516,894.151462 198.118953,915.329693 194.762024,939.483788 C194.762024,939.616048 194.762024,939.731776 194.695878,939.864037 C186.493727,999.596237 163.689763,1150.58826 210.389106,1195.22622 C214.721694,1200.00413 221.63399,1203.49251 228.017115,1201.09528 L267.109624,1189.91926 C267.109624,1189.91926 488.021988,1122.11916 513.273367,1114.23312 C536.209623,1107.12412 536.474209,1069.81009 533.696061,1050.23552 C533.233037,1046.03625 518.118589,894.531711 514.447465,867.534013 C512.562294,853.530921 509.66839,831.311138 507.650925,807.355434 L507.601315,807.355434 C505.78229,784.49088 504.823167,759.873873 506.427217,739.274283 C507.138291,730.181365 511.02439,721.782816 516.630296,714.293559 L519.673029,710.408404 C525.675813,703.382058 533.051134,697.16581 540.608358,691.875385 C557.078806,680.319114 573.086229,673.987137 573.086229,673.987137 L671.01594,632.523434 C743.760419,601.789374 746.025932,552.505762 734.38417,523.061243 C721.799821,491.169903 705.511276,456.749078 725.355189,428.842088 C725.603238,428.577567 725.867824,428.329578 726.049726,427.998927 C730.316168,422.37785 736.715829,417.798327 742.404418,415.351505 L965.185416,321.000089 C971.33703,318.470605 974.098641,312.204759 974.429373,305.823184 L982.896109,302.20255 L1173.91031,221.341717 C1187.91681,216.762193 1201.09647,204.676879 1197.40881,188.028574 L1197.22691,187.185413 Z M1169.89192,100.389385 C1174.42294,111.565407 1184.75832,136.810651 1184.82446,137.075173 C1183.9811,137.653813 1183.13773,138.232453 1182.36051,138.678832 C1181.78173,137.323161 1181.26909,136.09975 1180.80607,134.94247 L1167.11377,102.654348 C1168.08943,102.059175 1169.1147,101.348274 1169.89192,100.389385 L1169.89192,100.389385 Z M1151.0402,41.2358248 C1154.77747,50.1468837 1160.13533,67.9690015 1163.69069,80.682553 L1143.99561,34.1929471 C1147.08795,34.705457 1149.48576,37.6151905 1151.0402,41.2358248 L1151.0402,41.2358248 Z M1098.07349,11.262263 L1054.3342,29.4811627 C1065.82713,15.9079171 1082.04953,2.68185568 1098.07349,11.262263 L1098.07349,11.262263 Z M619.157181,230.583427 C622.580256,248.339414 613.534738,261.648139 590.532336,271.336229 L506.625656,306.848204 C492.288429,312.337019 475.106908,306.203433 464.126609,296.201224 L619.157181,230.583427 Z M149.997463,396.421705 C151.403074,394.041014 152.957514,393.131722 154.958442,391.379269 C159.737517,387.179994 158.133468,381.44319 156.066394,376.466885 C156.198686,376.334624 156.248296,376.334624 156.512882,376.268494 C158.133468,375.623723 158.646102,375.441865 158.844541,375.375735 C166.71596,394.041014 173.181769,377.111655 185.89841,390.354249 C180.738992,393.908753 174.802355,397.132606 168.2704,399.910079 C161.291957,402.885942 154.379661,404.952514 147.864243,406.175925 C147.73195,401.39801 148.823365,398.356016 149.997463,396.421705 L149.997463,396.421705 Z M9.0395335,496.195806 C12.0822669,501.502763 19.5071977,505.040734 28.0400804,507.570219 C19.821393,506.991579 7.61738639,504.991137 9.0395335,496.195806 L9.0395335,496.195806 Z M15.5714883,490.70699 C21.3758329,489.351319 29.5118373,490.70699 33.7121322,491.682412 C38.1770127,492.773562 43.2702837,493.236475 48.5123841,493.170344 L52.8945816,503.569335 C51.8693128,503.370944 15.6872444,499.551919 15.5714883,490.70699 L15.5714883,490.70699 Z M93.1446522,519.903521 C88.0348445,515.902637 76.7403506,513.059034 64.9166857,511.124723 L57.0287302,492.525574 C69.6957614,490.839251 82.4950854,485.796815 90.6310898,477.150277 C91.5240659,491.351761 94.3683601,506.346808 102.322462,531.790444 C99.4120214,526.681878 96.3031417,522.416473 93.1446522,519.903521 L93.1446522,519.903521 Z M105.87783,488.127908 C105.034463,469.14851 106.770806,459.642279 102.190169,441.10926 C102.124023,440.910869 102.057876,440.795141 102.057876,440.66288 C109.036319,425.998485 125.126426,420.06329 140.555068,413.995834 L140.753507,415.417636 C151.998391,413.929704 160.977762,411.863132 171.495036,407.399336 C181.582359,403.133931 189.007289,398.422147 197.589782,391.842181 L197.011001,391.06515 C286.540123,354.577753 425.81132,297.937145 446.101721,289.670856 L456.949727,300.516227 C469.798661,313.378572 487.046329,319.578288 504.757021,315.825393 C507.915511,315.180622 509.784146,314.403591 509.784146,314.403591 L593.823118,278.825486 C624.448891,265.913544 634.784262,245.694202 623.671671,217.340833 L1113.43598,13.725617 C1122.74609,9.19569094 1130.03873,21.6612539 1132.81687,28.257752 L1161.17713,95.2808184 L1077.13816,130.875456 C979.340741,172.256496 951.625409,213.075428 946.91248,221.093728 L393.383058,455.509134 L351.793524,357.355226 L342.946446,354.643883 L386.86764,458.286607 L383.824907,459.576148 L342.235372,361.42224 L333.371758,358.710897 L377.309489,462.419751 L374.266755,463.709292 L332.660684,365.489254 L323.813606,362.777911 L367.751337,466.486765 L364.708604,467.792839 L323.102533,369.622398 L314.255455,366.911055 L358.176649,470.61991 L355.150452,471.925983 L313.544381,373.689412 L304.697303,370.978069 L348.618498,474.686923 L345.592301,475.992997 L303.98623,377.822556 L295.139152,375.111213 L339.060346,478.820068 L336.034149,480.126141 L294.428078,381.88957 L285.581,379.178227 L329.502195,482.903614 L326.459461,484.193155 L284.869927,386.022714 L276.022849,383.311371 L319.944043,487.036758 L316.90131,488.326299 L275.311775,390.155858 L266.464697,387.444516 L310.385892,491.169903 L307.343158,492.459444 L265.753624,394.222872 L256.890009,391.51153 L300.82774,495.236916 L297.785007,496.526457 L256.178935,398.289886 L247.331858,395.578543 L291.269589,499.30393 L288.226855,500.593471 L246.620784,402.42303 L237.773706,399.711688 L281.6949,503.437075 L278.602557,504.726616 L236.996486,406.556174 L228.215554,403.844832 L272.136749,507.570219 L269.044406,508.85976 L227.438335,410.623188 L218.657403,407.911846 L262.578597,511.637233 L259.552401,512.926774 L217.946329,414.706735 L209.099251,411.97886 L253.020446,515.704247 L249.928103,516.993788 L208.322032,418.773749 L199.474954,416.062406 L243.396148,519.77126 L240.353415,521.060801 L198.76388,422.840763 L189.982948,420.12942 L233.904143,523.838274 L230.86141,525.127815 L189.271875,426.907776 L180.474407,424.196434 L224.412138,527.905288 L221.369404,529.194829 L179.763333,430.97479 L170.916255,428.263448 L214.83745,531.972302 L125.440621,569.81537 C115.68403,543.148324 107.101538,516.018365 105.87783,488.127908 L105.87783,488.127908 Z M196.564513,879.999576 C189.58607,883.355689 191.074364,874.31237 191.719291,870.443747 C192.69495,864.756541 199.723002,802.693247 188.230069,754.070939 C183.252555,736.447212 174.091281,723.452607 160.134396,714.293559 C131.509551,696.27305 104.703732,703.315928 75.6985452,711.449956 C62.9819041,715.715361 49.3557504,721.848947 36.1099384,724.163507 C29.1314956,725.33732 26.7998358,724.047779 24.6666151,718.674692 C16.5967571,698.786002 23.9555416,678.384802 51.5385809,665.98537 L70.3406886,657.52069 C67.430248,667.787421 67.2483455,681.096145 71.1179085,690.585844 C83.3219151,720.675134 123.836571,695.62828 143.531655,692.139906 C148.575316,691.230614 162.267616,696.008529 166.914399,698.984393 C198.697734,719.385593 214.903596,751.227336 216.590329,804.95821 C217.036817,818.134674 217.169109,841.958117 217.102963,871.353039 L196.564513,879.999576 Z M214.903596,1188.3652 C209.942618,1183.1409 203.410663,1172.9403 196.944855,1152.85322 C188.428509,1126.43417 188.874997,1079.8123 192.050023,1035.96791 C192.876852,1024.65962 197.655928,974.797372 202.964175,936.309533 L201.14515,937.086564 L202.964175,936.309533 C205.742323,916.040594 208.702373,898.929377 211.298619,892.134488 C211.877399,890.596958 214.523254,887.885616 217.036817,885.554522 C216.97067,899.640278 216.904524,914.751053 216.904524,930.374338 L216.854914,930.374338 C216.259597,1037.96835 214.523254,1170.60921 214.523254,1175.38713 C214.126376,1180.23117 214.126376,1184.69497 214.903596,1188.3652 L214.903596,1188.3652 Z M230.927556,1191.78744 C221.815892,1192.96126 221.882039,1184.29819 222.659259,1175.91617 C222.659259,1175.91617 224.461748,1037.45584 225.057065,927.084355 C225.37126,872.890568 225.37126,825.557801 224.726333,804.693689 C222.989991,749.160764 206.056518,714.409287 171.313133,692.073776 C166.071033,688.717663 150.179366,682.716337 142.109508,684.072009 C133.642772,685.609538 113.170468,693.429447 103.413877,695.76054 C93.475384,698.141232 83.3219151,698.984393 78.6751321,687.54385 C77.3852778,684.386128 76.7403506,681.030015 76.4757651,677.740032 C78.8074249,678.384802 81.5855727,678.384802 84.4960133,677.872292 C132.997844,669.010831 155.934101,677.029131 179.895626,692.387895 C211.67896,712.805627 227.438335,745.80465 229.125067,799.667786 C229.769994,820.912147 229.769994,869.666716 229.505409,925.150044 L229.439262,925.150044 C228.860482,1032.79365 227.124139,1165.31879 227.124139,1170.22896 C226.479212,1178.69364 227.239895,1186.69541 232.151264,1191.47332 L230.927556,1191.78744 Z M264.711818,1182.11588 L244.437953,1187.91882 C234.929412,1187.72043 234.54907,1178.74324 235.260144,1170.54308 C235.260144,1170.54308 237.062632,1032.08275 237.641413,921.7278 L237.70756,921.7278 C238.038292,867.600144 238.038292,820.201246 237.393364,799.337134 C235.640485,743.870339 219.170037,707.829322 184.426653,685.477278 C158.712249,668.944701 133.642772,660.562684 83.206159,669.787862 C78.9397176,670.564893 77.1868387,669.473743 76.9387897,667.274911 C77.0545459,666.11763 77.252985,664.943817 77.4514242,663.918798 C79.1877666,658.61184 84.7440623,651.188713 87.7867956,647.386221 C89.4569916,645.898289 91.4083098,644.096238 93.5249938,642.029666 C116.527397,620.008274 124.018474,605.657997 119.884325,580.280492 L929.863251,237.163393 L937.288182,240.139256 L943.158673,242.519947 L947.425114,244.272401 L949.293749,249.116446 C951.046628,253.514111 952.667215,257.961374 954.271264,262.42517 L731.357973,356.842716 C713.002353,363.488812 698.284784,373.491021 689.37156,391.13128 C685.369704,399.066917 682.971898,409.267517 673.992527,413.086542 L525.427764,475.992997 C494.42165,484.507274 454.370018,507.702479 451.658017,543.925355 C449.392503,574.146906 460.108216,592.101284 472.32876,602.946654 C480.200179,609.923402 488.468476,613.097656 497.3817,617.809441 C506.294924,626.323718 514.893953,634.986788 520.896737,645.766028 C517.09332,649.965303 511.669318,657.785212 504.492436,665.522458 C494.934284,676.83074 472.130321,706.92003 467.996172,713.698386 C459.016801,728.561173 455.014945,751.227336 460.703534,807.801813 C461.282315,813.48902 461.861095,819.754867 462.506023,826.533223 L462.572169,826.533223 C471.105052,915.131302 486.335255,1089.56652 488.402329,1113.38996 C426.390101,1132.45202 268.581381,1180.94207 264.711818,1182.11588 L264.711818,1182.11588 Z M498.291213,609.146371 C470.509734,596.498949 457.280459,578.79256 459.860168,544.503995 C461.927242,516.547408 491.891551,496.526457 517.09332,487.218617 C491.378916,526.037107 489.179549,565.103586 498.291213,609.146371 L498.291213,609.146371 Z M726.7608,526.037107 C736.848122,551.414612 736.451244,595.969907 667.857451,625.034177 L569.993886,666.431749 C560.501881,670.184644 549.653875,675.73959 539.318503,682.716337 C546.925337,669.407613 552.746218,654.429098 550.364948,643.054686 C549.769631,640.409473 548.810508,637.830391 547.5868,635.433168 C565.21481,645.187388 587.043114,646.67532 606.490149,638.541292 C658.811934,616.321509 675.795016,609.146371 684.394045,604.500717 C701.244835,597.20985 730.44846,563.301535 715.135574,524.879827 C701.955908,491.930401 678.573164,465.594006 645.251926,463.064522 L713.134646,434.330903 C699.95498,462.882664 714.358354,494.592146 726.7608,526.037107 L726.7608,526.037107 Z M539.698845,580.611143 C550.298802,605.591867 569.663154,624.141418 592.930142,634.408148 C556.235439,643.385337 533.233037,613.990416 533.16689,613.990416 C513.339514,582.148673 509.073072,540.701503 535.432404,512.926774 C529.297327,534.683645 530.272986,558.39136 539.698845,580.611143 L539.698845,580.611143 Z M546.991483,504.594355 L611.335371,477.348668 L620.314742,473.926425 C620.314742,473.926425 623.803964,472.620351 629.492552,471.793723 C668.122036,465.974255 693.753757,493.352203 707.462594,527.839158 C720.69187,561.102702 694.861709,591.191992 680.772531,597.14372 C672.438087,601.657113 655.835347,608.699991 604.869563,630.275004 C579.68433,621.942585 558.236367,603.475697 547.189922,577.436888 C536.986843,553.282794 537.565624,527.326648 546.991483,504.594355 L546.991483,504.594355 Z M962.738001,313.11405 C962.291512,313.444702 961.960781,313.56043 961.960781,313.56043 L741.494905,406.886826 C734.069974,410.044548 726.049726,415.533364 720.509967,422.195992 L720.046942,422.37785 L538.342844,499.30393 C515.605027,516.282887 504.426289,547.992369 509.982585,575.700968 C515.605027,603.789816 523.36069,613.147254 537.631771,634.722267 C547.834849,650.097563 540.079187,665.274469 531.430548,679.872734 C524.452105,691.676994 516.894881,700.786444 516.894881,700.786444 L512.562294,706.34139 C504.690875,716.09561 499.200725,726.94098 498.291213,738.629512 C496.55487,760.584774 497.712432,786.739311 499.71336,810.711547 C501.714288,833.95635 504.492436,855.134581 506.361071,868.509436 C510.114878,895.821252 525.560057,1051.07868 525.560057,1051.07868 C525.874252,1053.21138 531.877036,1099.83325 510.825951,1106.34709 L496.422578,1110.81088 C493.842869,1080.90345 478.778031,908.931586 470.443588,822.978719 C469.864807,817.159252 469.352173,811.802697 468.839538,806.826391 C463.15095,750.318044 467.549684,730.115235 475.040761,717.781933 C478.844178,711.516086 501.003214,682.121165 510.561366,670.829415 C516.51454,664.431307 521.475518,657.140441 527.428692,650.742334 C528.520107,648.543501 529.561913,646.278538 528.983132,643.633326 C527.560985,638.14451 517.027174,624.901916 508.312389,616.45377 C496.736773,567.50081 497.844725,525.326206 530.074547,482.705223 L677.217163,420.443539 C700.550298,410.573591 686.659559,381.178669 734.38417,364.265843 L957.049412,269.980557 C960.406341,279.850506 963.449074,289.869247 965.780734,299.937587 C967.004442,304.715501 966.872149,310.138187 962.738001,313.11405 L962.738001,313.11405 Z M1171.24792,213.720199 L1170.86758,213.852459 L973.586006,297.424635 C969.385711,279.982766 963.382928,262.805419 956.917119,246.206712 C955.445362,242.338089 954.337411,239.692877 954.337411,239.692877 C953.626337,237.940424 946.846333,234.96456 940.777403,232.583869 L952.733361,227.541433 C971.585078,190.095146 1048.91019,151.723036 1080.2305,138.430844 L1159.24235,104.968908 L1173.31499,138.100192 C1177.71373,148.565313 1185.00636,169.297165 1189.47125,189.830625 C1193.09276,206.495463 1172.35587,213.40608 1171.24792,213.720199 L1171.24792,213.720199 Z" id="Fill-6"></path>
                <path d="M162.267616,433.239753 L112.657833,454.219593 C107.680319,456.352296 110.838808,463.841553 115.816323,461.708851 L165.426106,440.729011 C170.403621,438.596308 167.245131,431.107051 162.267616,433.239753 L162.267616,433.239753 Z" id="Fill-9"></path>
                <path d="M369.421533,360.579078 L462.704462,321.049687 C467.681977,318.933517 464.506951,311.427728 459.529436,313.56043 L366.263044,353.089821 C361.219383,355.222523 364.377872,362.711781 369.421533,360.579078 L369.421533,360.579078 Z" id="Fill-10"></path>
                <path d="M642.787974,245.628072 L1129.97258,44.079428 C1134.95009,42.0128559 1131.85775,34.507066 1126.88024,36.5736381 L639.695631,238.072684 C634.651969,240.205387 637.826996,247.694644 642.787974,245.628072 L642.787974,245.628072 Z" id="Fill-13"></path>
            </g>
        </g>
    </g>
</svg>